<svg width="200" height="200" xmlns="http://www.w3.org/2000/svg">
    <rect width="100%" height="100%" fill="white" opacity="0"/>
  
      <path d="M100,70 L120,100 Q120,140 100,150 Q80,140 80,100 Z" fill="#fc5a8d"/>
      <circle cx="90" cy="90" r="2" fill="#ffff00"/>
      <circle cx="100" cy="95" r="2" fill="#ffff00"/>
      <circle cx="110" cy="90" r="2" fill="#ffff00"/>
      <circle cx="85" cy="100" r="2" fill="#ffff00"/>
      <circle cx="95" cy="105" r="2" fill="#ffff00"/>
      <circle cx="105" cy="105" r="2" fill="#ffff00"/>
      <circle cx="115" cy="100" r="2" fill="#ffff00"/>
      <circle cx="90" cy="115" r="2" fill="#ffff00"/>
      <circle cx="100" cy="120" r="2" fill="#ffff00"/>
      <circle cx="110" cy="115" r="2" fill="#ffff00"/>
      <path d="M100,70 Q105,60 110,65 Q115,60 100,50 Q85,60 90,65 Q95,60 100,70" fill="#568203"/>
      <text x="100" y="170" font-family="Arial" font-size="12" text-anchor="middle" fill="#333">Strawberry</text>
    </svg>