<svg width="200" height="200" xmlns="http://www.w3.org/2000/svg">
    <rect width="100%" height="100%" fill="white" opacity="0"/>
  
      <path d="M50,100 Q100,150 150,100 Q100,50 50,100" fill="#fc6c85"/>
      <path d="M50,100 Q100,150 150,100" stroke="#568203" stroke-width="5" fill="none"/>
      <circle cx="70" cy="110" r="2" fill="#000000"/>
      <circle cx="80" cy="120" r="2" fill="#000000"/>
      <circle cx="90" cy="125" r="2" fill="#000000"/>
      <circle cx="100" cy="130" r="2" fill="#000000"/>
      <circle cx="110" cy="125" r="2" fill="#000000"/>
      <circle cx="120" cy="120" r="2" fill="#000000"/>
      <circle cx="130" cy="110" r="2" fill="#000000"/>
      <circle cx="75" cy="100" r="2" fill="#000000"/>
      <circle cx="85" cy="110" r="2" fill="#000000"/>
      <circle cx="95" cy="115" r="2" fill="#000000"/>
      <circle cx="105" cy="115" r="2" fill="#000000"/>
      <circle cx="115" cy="110" r="2" fill="#000000"/>
      <circle cx="125" cy="100" r="2" fill="#000000"/>
      <text x="100" y="170" font-family="Arial" font-size="12" text-anchor="middle" fill="#333">Watermelon</text>
    </svg>